#!OML:ASF F:\VICON\USERDATA\INSTALL\rory3\rory3.ASF
:FULLY-SPECIFIED
:DEGREES
159
root 0.990111 18.0785 -0.616729 -3.02661 1.67195 0.268556
lowerback 12.4728 -0.266044 -2.40571
upperback 0.597049 -0.620318 1.10064
thorax -6.33629 -0.217369 2.63092
lowerneck -16.8001 -2.89127 -1.44907
upperneck 22.2711 -3.5515 -0.394079
head 9.86727 -1.81398 -0.369509
rclavicle -1.30577e-014 -1.39149e-015
rhumerus -31.024 -25.2615 -75.6638
rradius 27.7932
rwrist 1.5485
rhand -18.8185 22.5658
rfingers 7.12502
rthumb 7.48039 -7.2819
lclavicle -1.30577e-014 -1.39149e-015
lhumerus -29.7915 -1.70524 82.7048
lradius 28.025
lwrist 8.63916
lhand -29.0715 5.93038
lfingers 7.12502
lthumb -2.42081 35.8964
rfemur -27.7299 -3.76774 21.3737
rtibia 65.315
rfoot -9.86937 -6.69156
rtoes -6.41685
lfemur -6.70725 -2.12718 -25.2171
ltibia 27.5308
lfoot -14.4965 -0.598048
ltoes 0.663483
160
root 0.98937 18.0746 -0.460468 -2.91343 1.84603 0.238612
lowerback 12.3563 -0.299882 -2.37869
upperback 0.702121 -0.65805 1.10466
thorax -6.15737 -0.240783 2.62324
lowerneck -17.0551 -2.84536 -1.45181
upperneck 22.3992 -3.51847 -0.251547
head 9.96363 -1.78072 -0.320463
rclavicle -3.00662e-015 2.78299e-015
rhumerus -31.0632 -25.4051 -75.6651
rradius 27.6528
rwrist 1.68856
rhand -18.5275 22.6445
rfingers 7.12502
rthumb 7.76122 -7.19303
lclavicle -3.00662e-015 2.78299e-015
lhumerus -29.2039 -2.21912 82.6718
lradius 28.2916
lwrist 8.85748
lhand -27.1138 17.5323
lfingers 7.12502
lthumb -0.529991 47.5114
rfemur -28.4608 -3.74325 21.4813
rtibia 63.7496
rfoot -9.00788 -7.75702
rtoes -11.4663
lfemur -6.35028 -2.26748 -25.1965
ltibia 27.4492
lfoot -14.7832 -0.550105
ltoes 1.67348
161
root 0.990243 18.0582 -0.299207 -2.7768 1.91423 0.117303
lowerback 12.3101 -0.356537 -2.21591
upperback 0.710152 -0.707415 1.1384
thorax -6.12136 -0.269709 2.57429
lowerneck -17.3519 -2.82553 -1.37899
upperneck 22.6194 -3.49241 -0.313333
head 10.0954 -1.76812 -0.35792
rclavicle -9.05713e-015 3.97569e-015
rhumerus -31.1165 -25.9607 -75.4469
rradius 27.1906
rwrist 2.43379
rhand -18.2421 22.9933
rfingers 7.12502
rthumb 8.03665 -6.83391
lclavicle -9.05713e-015 3.97569e-015
lhumerus -28.6884 -2.28003 82.5404
lradius 28.3415
lwrist 8.82016
lhand -25.5528 23.076
lfingers 7.12502
lthumb 0.977705 53.0535
rfemur -29.1704 -3.48811 21.6728
rtibia 62.0197
rfoot -7.30867 -10.7943
rtoes -11.6
lfemur -6.26152 -2.13239 -25.0378
ltibia 27.3166
lfoot -14.8781 -0.931314
ltoes 3.61124
162
root 0.99143 18.0432 -0.136207 -2.76222 1.94538 0.28099
lowerback 12.3953 -0.382069 -2.39526
upperback 0.699997 -0.766994 1.15549
thorax -6.17375 -0.292675 2.70593
lowerneck -17.3655 -2.86511 -1.4407
upperneck 22.703 -3.50248 -0.423714
head 10.1273 -1.79116 -0.38906
rclavicle -3.50358e-015 1.37161e-014
rhumerus -31.4085 -25.9124 -75.2664
rradius 27.0903
rwrist 2.58609
rhand -18.2853 23.4173
rfingers 7.12502
rthumb 7.99503 -6.41145
lclavicle -3.50358e-015 1.37161e-014
lhumerus -28.4983 -2.27011 82.4879
lradius 28.8534
lwrist 8.6881
lhand -25.6143 25.0863
lfingers 7.12502
lthumb 0.918251 55.0641
rfemur -29.6613 -3.34427 21.4992
rtibia 60.142
rfoot -7.26299 -12.3824
rtoes -11.2879
lfemur -5.16557 -1.8664 -25.2149
ltibia 27.2034
lfoot -15.885 -0.634869
ltoes 1.64224
163
root 0.993366 18.0514 0.026151 -2.76463 2.02431 0.640074
lowerback 12.5474 -0.392198 -2.7878
upperback 0.646849 -0.843156 1.1037
thorax -6.30587 -0.316454 2.89056
lowerneck -17.1964 -2.81603 -1.37603
upperneck 22.7219 -3.42294 -0.550259
head 10.0979 -1.76465 -0.430742
rclavicle -2.21148e-015 6.36111e-015
rhumerus -31.8659 -25.582 -75.1863
rradius 27.2744
rwrist 2.37197
rhand -17.943 23.4995
rfingers 7.12502
rthumb 8.32534 -6.31649
lclavicle -2.21148e-015 6.36111e-015
lhumerus -28.3826 -2.50648 82.4467
lradius 29.397
lwrist 8.85634
lhand -26.6411 25.5096
lfingers 7.12502
lthumb -0.0734896 55.4893
rfemur -29.9624 -3.2856 21.1074
rtibia 58.0526
rfoot -8.46183 -12.2724
rtoes -9.58147
lfemur -4.19447 -1.97686 -25.6417
ltibia 27.0679
lfoot -16.5216 -0.254026
ltoes 1.42428
164
root 0.991219 18.0533 0.182847 -2.70386 2.0754 0.709732
lowerback 12.6017 -0.443443 -2.94634
upperback 0.599758 -0.932863 1.14603
thorax -6.377 -0.353089 3.04291
lowerneck -16.828 -2.75956 -1.39591
upperneck 22.608 -3.34719 -0.538941
head 9.98788 -1.73149 -0.40581
rclavicle 5.1684e-015 -1.07344e-014
rhumerus -32.2604 -25.1436 -75.1797
rradius 27.3596
rwrist 2.23887
rhand -17.697 23.5089
rfingers 7.12502
rthumb 8.56278 -6.2975
lclavicle 5.1684e-015 -1.07344e-014
lhumerus -28.2425 -2.77709 82.4328
lradius 29.719
lwrist 9.43632
lhand -27.8964 24.6347
lfingers 7.12502
lthumb -1.28589 54.6105
rfemur -30.2931 -3.11299 21.0742
rtibia 55.7911
rfoot -9.71398 -11.5452
rtoes -5.32066
lfemur -3.49257 -1.83913 -25.6849
ltibia 26.8276
lfoot -16.8732 -0.278962
ltoes 1.41901
165
root 0.987619 18.0427 0.341353 -2.63577 2.04373 0.697068
lowerback 12.4949 -0.45675 -2.9486
upperback 0.737375 -0.944607 1.17816
thorax -6.16956 -0.364504 3.07588
lowerneck -16.9372 -2.76554 -1.54327
upperneck 22.523 -3.35359 -0.372788
head 9.98439 -1.72712 -0.324871
rclavicle -1.88845e-015 -3.97569e-016
rhumerus -32.1367 -25.0362 -75.2975
rradius 27.2308
rwrist 2.18529
rhand -17.7432 21.9596
rfingers 7.12502
rthumb 8.5182 -7.8486
lclavicle -1.88845e-015 -3.97569e-016
lhumerus -27.767 -2.83688 82.3002
lradius 30.0315
lwrist 9.63274
lhand -29.3711 23.1742
lfingers 7.12502
lthumb -2.71013 53.1367
rfemur -30.5478 -2.77151 21.1187
rtibia 53.3342
rfoot -10.5916 -11.4999
rtoes 0.00243223
lfemur -2.73062 -1.59332 -25.6234
ltibia 26.3556
lfoot -17.2089 -0.429014
ltoes 0.842204
166
root 0.986851 18.0431 0.506888 -2.50072 2.06695 0.870131
lowerback 12.3331 -0.494344 -3.17421
upperback 0.758793 -1.01963 1.20499
thorax -6.0465 -0.397733 3.24123
lowerneck -16.8029 -2.70323 -1.58962
upperneck 22.4309 -3.25071 -0.390957
head 9.92626 -1.68627 -0.306571
rclavicle -6.21202e-016 1.19271e-015
rhumerus -32.232 -24.5016 -75.4512
rradius 27.3589
rwrist 1.8683
rhand -17.861 20.3286
rfingers 7.12502
rthumb 8.40451 -9.48415
lclavicle -6.21202e-016 1.19271e-015
lhumerus -27.5646 -2.71438 82.1847
lradius 30.4879
lwrist 9.66481
lhand -29.0881 26.2393
lfingers 7.12502
lthumb -2.4368 56.2051
rfemur -30.7805 -2.45581 20.8885
rtibia 50.7606
rfoot -9.01487 -12.1122
rtoes -3.37634
lfemur -1.94656 -1.42335 -25.7933
ltibia 25.753
lfoot -17.6089 -0.481611
ltoes -0.332514
167
root 0.98793 18.0493 0.676013 -2.26625 2.13186 0.952322
lowerback 12.2242 -0.526777 -3.2688
upperback 0.58452 -1.07252 1.23347
thorax -6.16414 -0.415524 3.33441
lowerneck -16.5594 -2.65734 -1.46989
upperneck 22.4816 -3.1649 -0.628719
head 9.8914 -1.66508 -0.394766
rclavicle -1.717e-014 2.78299e-015
rhumerus -32.8702 -24.1731 -75.2865
rradius 27.5767
rwrist 1.65833
rhand -17.7573 20.0963
rfingers 7.12502
rthumb 8.50456 -9.71243
lclavicle -1.717e-014 2.78299e-015
lhumerus -27.7566 -2.90718 82.1461
lradius 31.0996
lwrist 9.81168
lhand -24.1161 36.2188
lfingers 7.12502
lthumb 2.36521 66.1854
rfemur -31.0604 -2.1964 20.7431
rtibia 48.1588
rfoot -7.85225 -12.7394
rtoes -5.93163
lfemur -1.1022 -1.5731 -25.898
ltibia 24.8634
lfoot -17.6556 -0.452446
ltoes 0.0328175
168
root 0.989421 18.0414 0.844319 -2.13665 2.15534 1.11238
lowerback 12.1781 -0.539289 -3.37974
upperback 0.540217 -1.10536 1.20579
thorax -6.18121 -0.427815 3.37325
lowerneck -16.6952 -2.64034 -1.476
upperneck 22.6358 -3.12997 -0.658125
head 9.97154 -1.65258 -0.403214
rclavicle -2.86498e-014 1.03368e-014
rhumerus -33.3518 -24.7951 -74.7481
rradius 27.2503
rwrist 2.56154
rhand -17.6053 20.2214
rfingers 7.12502
rthumb 8.65125 -9.58133
lclavicle -2.86498e-014 1.03368e-014
lhumerus -27.6717 -3.12599 82.1305
lradius 31.7773
lwrist 10.5436
lhand -31.4111 -2.92937
lfingers 7.12502
lthumb -4.6801 26.9989
rfemur -31.2537 -2.00656 20.537
rtibia 45.5024
rfoot -7.36542 -13.4147
rtoes -4.41061
lfemur -0.265961 -1.54568 -26.0884
ltibia 23.8412
lfoot -17.4579 -0.523304
ltoes 0.0907162
169
root 0.987365 18.0108 1.01019 -2.08531 2.10409 1.38642
lowerback 12.1747 -0.532312 -3.59936
upperback 0.59419 -1.13092 1.12508
thorax -6.11752 -0.437611 3.41564
lowerneck -16.7341 -2.58435 -1.62391
upperneck 22.6275 -3.04659 -0.510942
head 9.98106 -1.60933 -0.316404
rclavicle 2.01269e-014 -7.95139e-016
rhumerus -33.6243 -25.3326 -74.295
rradius 26.8405
rwrist 3.58015
rhand -17.7711 19.6311
rfingers 7.12502
rthumb 8.49124 -10.1782
lclavicle 2.01269e-014 -7.95139e-016
lhumerus -27.2937 -3.10153 81.9855
lradius 32.4711
lwrist 11.3124
lhand -29.2301 18.3372
lfingers 7.12502
lthumb -2.57392 48.3014
rfemur -31.4362 -1.59192 20.1419
rtibia 42.821
rfoot -8.34512 -14.1415
rtoes 6.28998
lfemur 0.263302 -1.395 -26.3823
ltibia 22.7687
lfoot -16.831 -0.666946
ltoes -0.346213
170
root 0.982006 18.0269 1.17675 -1.94608 2.11482 1.47769
lowerback 12.0288 -0.563245 -3.70185
upperback 0.618788 -1.1813 1.11326
thorax -6.00368 -0.462889 3.46569
lowerneck -16.5711 -2.50369 -1.68134
upperneck 22.538 -2.93708 -0.445493
head 9.91992 -1.55634 -0.265982
rclavicle -1.91827e-014 -3.97569e-016
rhumerus -33.6089 -25.6285 -74.1457
rradius 26.3492
rwrist 3.79213
rhand -17.8766 19.5967
rfingers 7.12502
rthumb 8.38943 -10.2167
lclavicle -1.91827e-014 -3.97569e-016
lhumerus -27.1383 -3.23102 81.837
lradius 33.1534
lwrist 11.8795
lhand -27.9742 25.981
lfingers 7.12502
lthumb -1.36102 55.9564
rfemur -31.3741 -0.917594 19.8365
rtibia 39.9545
rfoot -6.88288 -14.5764
rtoes 4.32909
lfemur 1.51141 -1.00102 -26.4173
ltibia 21.7742
lfoot -17.1384 -0.623949
ltoes -2.29027
